<svg version="1.1" xmlns="http://www.w3.org/2000/svg" x="0" y="0" viewBox="0 0 640 480" xml:space="preserve"><style>.st0{fill:#32a48d}.st1{fill:#666}</style><path class="st0" d="M200 213l2-2h98l2-2v-50l2-2h8l2 2v116l-2 2h-8l-2-2v-50l-2-2h-98l-2-2v-8zM328 187l-2 2v56l2 2h8l2-2v-20l2-2h98l2-2v-8l-2-2h-98l-2-2v-20l-2-2h-8z"/><g><path class="st1" d="M276 323l-5-16-6 16h-2l-7-22h3l5 16 5-16h3l5 16 5-16h3l-7 22h-2zM291 304v6h10v4h-10v6h10v3h-13v-22h13v3h-10zM314 301l5 1c2 1 2 3 2 5s0 4-2 5c2 1 2 3 2 5s0 3-2 4l-5 2h-8v-22h8zm-5 9h5l3-1 1-2-1-2-3-1h-5v6zm0 10h5l3-1 1-2-1-3-3-1h-5v7zM338 320v3h-13v-22h3v19h10zM342 323v-22h3v22h-3zM358 301l5 1 2 5-2 5 2 5-2 4-5 2h-9v-22h9zm-5 9h5l3-1 1-2-1-2-3-1h-6v6zm0 10h5l3-1 1-2-1-3-3-1h-6v7zM377 301l4 1 3 4-3 1c-1-2-2-3-4-3h-1l-3 1-1 2 1 2 3 1 6 2 2 5-2 5-6 1-5-1-3-4 3-1c1 2 2 3 5 3l4-1 1-2-1-3h-4l-5-2c-2-1-3-3-3-5s1-4 3-5l5-1h1z"/></g></svg>